<svg width="32" height="32" viewBox="0 0 32 32" fill="none" xmlns="http://www.w3.org/2000/svg">
  <circle cx="16" cy="16" r="16" fill="#2563eb"/>
  <g transform="translate(6, 6)">
    <path d="M10 4 L10 2 M10 18 L10 16" stroke="white" stroke-width="1.5" stroke-linecap="round"/>
    <path d="M7 6 C7 4.895 8.895 4 10 4 C11.105 4 13 4.895 13 6 C13 7.105 11.105 8 10 8 C8.895 8 7 8.895 7 10 C7 11.105 8.895 12 10 12 C11.105 12 13 12.895 13 14" stroke="white" stroke-width="1.5" stroke-linecap="round"/>
    <path d="M2 14 L6 10 L10 12 L18 4" stroke="#10b981" stroke-width="2" stroke-linecap="round" stroke-linejoin="round"/>
    <path d="M14 4 L18 4 L18 8" stroke="#10b981" stroke-width="2" stroke-linecap="round" stroke-linejoin="round"/>
  </g>
</svg>
